<svg width="106" height="44" viewBox="0 0 106 44" fill="none" xmlns="http://www.w3.org/2000/svg">
<rect width="106" height="44" fill="white"/>
<path d="M23.3594 27.6562C23.3594 29.0104 23.0312 30.1875 22.375 31.1875C21.7188 32.1875 20.7604 32.9583 19.5 33.5C18.25 34.0417 16.7292 34.3125 14.9375 34.3125C14.1458 34.3125 13.3698 34.2604 12.6094 34.1562C11.8594 34.0521 11.1354 33.901 10.4375 33.7031C9.75 33.4948 9.09375 33.2396 8.46875 32.9375V28.4375C9.55208 28.9167 10.6771 29.349 11.8438 29.7344C13.0104 30.1198 14.1667 30.3125 15.3125 30.3125C16.1042 30.3125 16.7396 30.2083 17.2188 30C17.7083 29.7917 18.0625 29.5052 18.2812 29.1406C18.5 28.776 18.6094 28.3594 18.6094 27.8906C18.6094 27.3177 18.4167 26.8281 18.0312 26.4219C17.6458 26.0156 17.1146 25.6354 16.4375 25.2812C15.7708 24.9271 15.0156 24.5469 14.1719 24.1406C13.6406 23.8906 13.0625 23.5885 12.4375 23.2344C11.8125 22.8698 11.2188 22.4271 10.6562 21.9062C10.0938 21.3854 9.63021 20.7552 9.26562 20.0156C8.91146 19.2656 8.73438 18.3698 8.73438 17.3281C8.73438 15.9635 9.04688 14.7969 9.67188 13.8281C10.2969 12.8594 11.1875 12.1198 12.3438 11.6094C13.5104 11.0885 14.8854 10.8281 16.4688 10.8281C17.6562 10.8281 18.7865 10.9688 19.8594 11.25C20.9427 11.5208 22.0729 11.9167 23.25 12.4375L21.6875 16.2031C20.6354 15.776 19.6927 15.4479 18.8594 15.2188C18.026 14.9792 17.1771 14.8594 16.3125 14.8594C15.7083 14.8594 15.1927 14.9583 14.7656 15.1562C14.3385 15.3438 14.0156 15.6146 13.7969 15.9688C13.5781 16.3125 13.4688 16.7135 13.4688 17.1719C13.4688 17.7135 13.625 18.1719 13.9375 18.5469C14.2604 18.9115 14.7396 19.2656 15.375 19.6094C16.0208 19.9531 16.8229 20.3542 17.7812 20.8125C18.9479 21.3646 19.9427 21.9427 20.7656 22.5469C21.599 23.1406 22.2396 23.8438 22.6875 24.6562C23.1354 25.4583 23.3594 26.4583 23.3594 27.6562ZM31.8906 9.6875V14.6406C31.8906 15.5052 31.8594 16.3281 31.7969 17.1094C31.7448 17.8906 31.7031 18.4427 31.6719 18.7656H31.9219C32.2969 18.1615 32.7396 17.6719 33.25 17.2969C33.7708 16.9219 34.3438 16.6458 34.9688 16.4688C35.5938 16.2917 36.2656 16.2031 36.9844 16.2031C38.2448 16.2031 39.3438 16.4271 40.2812 16.875C41.2188 17.3125 41.9479 18.0052 42.4688 18.9531C42.9896 19.8906 43.25 21.1094 43.25 22.6094V34H38.4844V23.7969C38.4844 22.5469 38.2552 21.6042 37.7969 20.9688C37.3385 20.3333 36.6302 20.0156 35.6719 20.0156C34.7135 20.0156 33.9583 20.2396 33.4062 20.6875C32.8542 21.125 32.4635 21.776 32.2344 22.6406C32.0052 23.4948 31.8906 24.5417 31.8906 25.7812V34H27.125V9.6875H31.8906ZM64.0312 25.2344C64.0312 26.6927 63.8333 27.9844 63.4375 29.1094C63.0521 30.2344 62.4844 31.1875 61.7344 31.9688C60.9948 32.7396 60.099 33.3229 59.0469 33.7188C58.0052 34.1146 56.8281 34.3125 55.5156 34.3125C54.2865 34.3125 53.1562 34.1146 52.125 33.7188C51.1042 33.3229 50.2135 32.7396 49.4531 31.9688C48.7031 31.1875 48.1198 30.2344 47.7031 29.1094C47.2969 27.9844 47.0938 26.6927 47.0938 25.2344C47.0938 23.2969 47.4375 21.6562 48.125 20.3125C48.8125 18.9688 49.7917 17.9479 51.0625 17.25C52.3333 16.5521 53.849 16.2031 55.6094 16.2031C57.2448 16.2031 58.6927 16.5521 59.9531 17.25C61.224 17.9479 62.2188 18.9688 62.9375 20.3125C63.6667 21.6562 64.0312 23.2969 64.0312 25.2344ZM51.9531 25.2344C51.9531 26.3802 52.0781 27.3438 52.3281 28.125C52.5781 28.9062 52.9688 29.4948 53.5 29.8906C54.0312 30.2865 54.724 30.4844 55.5781 30.4844C56.4219 30.4844 57.1042 30.2865 57.625 29.8906C58.1562 29.4948 58.5417 28.9062 58.7812 28.125C59.0312 27.3438 59.1562 26.3802 59.1562 25.2344C59.1562 24.0781 59.0312 23.1198 58.7812 22.3594C58.5417 21.5885 58.1562 21.0104 57.625 20.625C57.0938 20.2396 56.401 20.0469 55.5469 20.0469C54.2865 20.0469 53.3698 20.4792 52.7969 21.3438C52.2344 22.2083 51.9531 23.5052 51.9531 25.2344ZM77.7188 16.2031C77.9583 16.2031 78.2344 16.2188 78.5469 16.25C78.8698 16.2708 79.1302 16.3021 79.3281 16.3438L78.9688 20.8125C78.8125 20.7604 78.5885 20.724 78.2969 20.7031C78.0156 20.6719 77.7708 20.6562 77.5625 20.6562C76.9479 20.6562 76.349 20.7344 75.7656 20.8906C75.1927 21.0469 74.6771 21.3021 74.2188 21.6562C73.7604 22 73.3958 22.4583 73.125 23.0312C72.8646 23.5938 72.7344 24.2865 72.7344 25.1094V34H67.9688V16.5312H71.5781L72.2812 19.4688H72.5156C72.8594 18.875 73.2865 18.3333 73.7969 17.8438C74.3177 17.3438 74.9062 16.9479 75.5625 16.6562C76.2292 16.3542 76.9479 16.2031 77.7188 16.2031ZM89.8594 30.5156C90.3802 30.5156 90.8854 30.4635 91.375 30.3594C91.875 30.2552 92.3698 30.125 92.8594 29.9688V33.5156C92.349 33.7448 91.7135 33.9323 90.9531 34.0781C90.2031 34.2344 89.3802 34.3125 88.4844 34.3125C87.4427 34.3125 86.5052 34.1458 85.6719 33.8125C84.849 33.4688 84.1979 32.8802 83.7188 32.0469C83.25 31.2031 83.0156 30.0312 83.0156 28.5312V20.1094H80.7344V18.0938L83.3594 16.5L84.7344 12.8125H87.7812V16.5312H92.6719V20.1094H87.7812V28.5312C87.7812 29.1979 87.9688 29.6979 88.3438 30.0312C88.7292 30.3542 89.2344 30.5156 89.8594 30.5156Z" fill="black"/>
<path d="M97.7614 34.2955C97.0114 34.2955 96.3674 34.0303 95.8295 33.5C95.2992 32.9621 95.0341 32.3182 95.0341 31.5682C95.0341 30.8258 95.2992 30.1894 95.8295 29.6591C96.3674 29.1288 97.0114 28.8636 97.7614 28.8636C98.4886 28.8636 99.125 29.1288 99.6705 29.6591C100.216 30.1894 100.489 30.8258 100.489 31.5682C100.489 32.0682 100.36 32.5265 100.102 32.9432C99.8523 33.3523 99.5227 33.6818 99.1136 33.9318C98.7045 34.1742 98.2538 34.2955 97.7614 34.2955Z" fill="#319795"/>
</svg>
